# xmcd
#
# Track frame offsets: 
#        150
#        43548
#        93208
#        115413
#        139396
#        191854
#        231682
#        268337
#        300337
#
# Disc length: 4320 seconds
#
# Revision: 0
# Processed by: cddbd v1.5.2PL0 Copyright (c) Steve Scherf et al.
# Submitted via: ExactAudioCopy v1.1
#
DISCID=8510de09
DTITLE=Jim McCarty - Jim McCarty and Friends II - Live from Callahan's
DYEAR=2016
DGENRE=Blues
TTITLE0=Jim McCarty w/ Coco Montoya - Fannie Mae
TTITLE1=Jim McCarty w/ Coco Montoya - Put the Shoe on the other Foot
TTITLE2=Jim McCarty w/ Tommy Castro - Let me Love you Baby
TTITLE3=Jim McCarty w/ Tommy Castro - Jenny-Jenny - Good Golly Miss Mo
TTITLE3=lly
TTITLE4=Jim McCarty w/ Nick Moss - Homesick for my Baby
TTITLE5=Jim McCarty w/ Johnny Bassett - Everyday I have the Blues
TTITLE6=Jim McCarty w/ Jason Ricci - Excello Boogie
TTITLE7=Jim McCarty w/ Joe Louis Walker - I got a Mind to Give up Livi
TTITLE7=ng
TTITLE8=Jim McCarty w/ Joe Louis Walker - Born in Chicago
EXTD=
EXTT0=
EXTT1=
EXTT2=
EXTT3=
EXTT4=
EXTT5=
EXTT6=
EXTT7=
EXTT8=
PLAYORDER=
